<svg xmlns="http://www.w3.org/2000/svg" viewBox="0 0 1024 1024" preserveAspectRatio="xMidYMid meet">
        
      <metadata>
        <rdf:rdf xmlns:rdf="http://www.w3.org/1999/02/22-rdf-syntax-ns#" xmlns:dc="http://purl.org/dc/elements/1.1/">
          <dc:title>HashJing Mandala</dc:title>
          <dc:creator>DataSattva</dc:creator>
          <dc:description>Generative art based on cryptographic hash entropy and symbolic geometry.</dc:description>
          <dc:date>2025</dc:date>
          <dc:rights>MIT License (code); CC BY-NC 4.0 (visuals)</dc:rights>
          <dc:identifier>https://github.com/DataSattva/HashJing</dc:identifier>
          <dc:language>en</dc:language>
          <dc:format>image/svg+xml</dc:format>
          <dc:subject>generative art, mandala, hash, entropy, cryptography, I Ching</dc:subject>
        </rdf:rdf>
      </metadata>
      <desc>Generated with HashJing by DataSattva on 2025-07-21</desc>
    
        <rect x="0" y="0" width="1024" height="1024" fill="black"/>
<path d="M 512 112 A 400 400 0 0 1 551.2068561318243 113.92610933112127 L 559.0482273581891 34.31133119734551 A 480 480 0 0 0 512 32 Z" fill="white" stroke="black" stroke-width="1"/>
<path d="M 512 192 A 320 320 0 0 1 543.3654849054594 193.54088746489703 L 551.2068561318243 113.92610933112127 A 400 400 0 0 0 512 112 Z" fill="white" stroke="black" stroke-width="1"/>
<path d="M 512 272 A 240 240 0 0 1 535.5241136790946 273.1556655986727 L 543.3654849054594 193.54088746489703 A 320 320 0 0 0 512 192 Z" fill="white" stroke="black" stroke-width="1"/>
<path d="M 512 352 A 160 160 0 0 1 527.6827424527297 352.7704437324485 L 535.5241136790946 273.1556655986727 A 240 240 0 0 0 512 272 Z" fill="white" stroke="black" stroke-width="1"/>
<path d="M 551.2068561318243 113.92610933112127 A 400 400 0 0 1 590.0361288064514 119.6858878387078 L 605.6433545677417 41.22306540644939 A 480 480 0 0 0 559.0482273581891 34.31133119734551 Z" fill="white" stroke="black" stroke-width="1"/>
<path d="M 543.3654849054594 193.54088746489703 A 320 320 0 0 1 574.4289030451612 198.14871027096626 L 590.0361288064514 119.6858878387078 A 400 400 0 0 0 551.2068561318243 113.92610933112127 Z" fill="white" stroke="black" stroke-width="1"/>
<path d="M 535.5241136790946 273.1556655986727 A 240 240 0 0 1 558.8216772838708 276.6115327032247 L 574.4289030451612 198.14871027096626 A 320 320 0 0 0 543.3654849054594 193.54088746489703 Z" fill="white" stroke="black" stroke-width="1"/>
<path d="M 527.6827424527297 352.7704437324485 A 160 160 0 0 1 543.2144515225806 355.07435513548313 L 558.8216772838708 276.6115327032247 A 240 240 0 0 0 535.5241136790946 273.1556655986727 Z" fill="white" stroke="black" stroke-width="1"/>
<path d="M 590.0361288064513 119.6858878387078 A 400 400 0 0 1 628.1138709017849 129.22386570711643 L 651.3366450821419 52.66863884853973 A 480 480 0 0 0 605.6433545677417 41.22306540644939 Z" fill="black" stroke="black" stroke-width="1"/>
<path d="M 574.4289030451611 198.14871027096626 A 320 320 0 0 1 604.891096721428 205.77909256569313 L 628.1138709017849 129.22386570711643 A 400 400 0 0 0 590.0361288064513 119.6858878387078 Z" fill="white" stroke="black" stroke-width="1"/>
<path d="M 558.8216772838708 276.6115327032247 A 240 240 0 0 1 581.668322541071 282.3343194242699 L 604.891096721428 205.77909256569313 A 320 320 0 0 0 574.4289030451611 198.14871027096626 Z" fill="white" stroke="black" stroke-width="1"/>
<path d="M 543.2144515225805 355.07435513548313 A 160 160 0 0 1 558.4455483607139 358.8895462828466 L 581.668322541071 282.3343194242699 A 240 240 0 0 0 558.8216772838708 276.6115327032247 Z" fill="black" stroke="black" stroke-width="1"/>
<path d="M 628.1138709017849 129.22386570711643 A 400 400 0 0 1 665.073372946036 142.4481869954853 L 695.6880475352432 68.53782439458234 A 480 480 0 0 0 651.3366450821419 52.66863884853973 Z" fill="white" stroke="black" stroke-width="1"/>
<path d="M 604.891096721428 205.77909256569313 A 320 320 0 0 1 634.4586983568288 216.35854959638823 L 665.073372946036 142.4481869954853 A 400 400 0 0 0 628.1138709017849 129.22386570711643 Z" fill="black" stroke="black" stroke-width="1"/>
<path d="M 581.668322541071 282.3343194242699 A 240 240 0 0 1 603.8440237676216 290.2689121972912 L 634.4586983568288 216.35854959638823 A 320 320 0 0 0 604.891096721428 205.77909256569313 Z" fill="white" stroke="black" stroke-width="1"/>
<path d="M 558.4455483607139 358.8895462828466 A 160 160 0 0 1 573.2293491784144 364.1792747981941 L 603.8440237676216 290.2689121972912 A 240 240 0 0 0 581.668322541071 282.3343194242699 Z" fill="white" stroke="black" stroke-width="1"/>
<path d="M 665.073372946036 142.4481869954853 A 400 400 0 0 1 700.5586947303991 159.231494260658 L 738.2704336764789 88.67779311278963 A 480 480 0 0 0 695.6880475352432 68.53782439458234 Z" fill="white" stroke="black" stroke-width="1"/>
<path d="M 634.4586983568288 216.35854959638823 A 320 320 0 0 1 662.8469557843193 229.78519540852642 L 700.5586947303991 159.231494260658 A 400 400 0 0 0 665.073372946036 142.4481869954853 Z" fill="white" stroke="black" stroke-width="1"/>
<path d="M 603.8440237676216 290.2689121972912 A 240 240 0 0 1 625.1352168382394 300.33889655639484 L 662.8469557843193 229.78519540852642 A 320 320 0 0 0 634.4586983568288 216.35854959638823 Z" fill="black" stroke="black" stroke-width="1"/>
<path d="M 573.2293491784144 364.1792747981941 A 160 160 0 0 1 587.4234778921597 370.8925977042632 L 625.1352168382394 300.33889655639484 A 240 240 0 0 0 603.8440237676216 290.2689121972912 Z" fill="white" stroke="black" stroke-width="1"/>
<path d="M 700.5586947303991 159.231494260658 A 400 400 0 0 1 734.228093207841 179.41215507898193 L 778.6737118494091 112.89458609477833 A 480 480 0 0 0 738.2704336764789 88.67779311278963 Z" fill="black" stroke="black" stroke-width="1"/>
<path d="M 662.8469557843193 229.78519540852642 A 320 320 0 0 1 689.7824745662728 245.92972406318557 L 734.228093207841 179.41215507898193 A 400 400 0 0 0 700.5586947303991 159.231494260658 Z" fill="black" stroke="black" stroke-width="1"/>
<path d="M 625.1352168382394 300.33889655639484 A 240 240 0 0 1 645.3368559247045 312.44729304738917 L 689.7824745662728 245.92972406318557 A 320 320 0 0 0 662.8469557843193 229.78519540852642 Z" fill="white" stroke="black" stroke-width="1"/>
<path d="M 587.4234778921597 370.8925977042632 A 160 160 0 0 1 600.8912372831364 378.9648620315928 L 645.3368559247045 312.44729304738917 A 240 240 0 0 0 625.1352168382394 300.33889655639484 Z" fill="black" stroke="black" stroke-width="1"/>
<path d="M 734.2280932078409 179.41215507898193 A 400 400 0 0 1 765.7573136654582 202.79581865490525 L 816.5087763985498 140.9549823858863 A 480 480 0 0 0 778.6737118494091 112.89458609477828 Z" fill="white" stroke="black" stroke-width="1"/>
<path d="M 689.7824745662728 245.92972406318552 A 320 320 0 0 1 715.0058509323666 264.6366549239242 L 765.7573136654582 202.79581865490525 A 400 400 0 0 0 734.2280932078409 179.41215507898193 Z" fill="black" stroke="black" stroke-width="1"/>
<path d="M 645.3368559247045 312.44729304738917 A 240 240 0 0 1 664.2543881992749 326.47749119294315 L 715.0058509323666 264.6366549239242 A 320 320 0 0 0 689.7824745662728 245.92972406318552 Z" fill="white" stroke="black" stroke-width="1"/>
<path d="M 600.8912372831363 378.96486203159276 A 160 160 0 0 1 613.5029254661833 388.3183274619621 L 664.2543881992749 326.47749119294315 A 240 240 0 0 0 645.3368559247045 312.44729304738917 Z" fill="black" stroke="black" stroke-width="1"/>
<path d="M 765.7573136654582 202.79581865490525 A 400 400 0 0 1 794.842712474619 229.15728752538104 L 851.4112549695428 172.58874503045723 A 480 480 0 0 0 816.5087763985498 140.9549823858863 Z" fill="white" stroke="black" stroke-width="1"/>
<path d="M 715.0058509323666 264.6366549239242 A 320 320 0 0 1 738.2741699796952 285.7258300203048 L 794.842712474619 229.15728752538104 A 400 400 0 0 0 765.7573136654582 202.79581865490525 Z" fill="white" stroke="black" stroke-width="1"/>
<path d="M 664.2543881992749 326.47749119294315 A 240 240 0 0 1 681.7056274847714 342.2943725152286 L 738.2741699796952 285.7258300203048 A 320 320 0 0 0 715.0058509323666 264.6366549239242 Z" fill="black" stroke="black" stroke-width="1"/>
<path d="M 613.5029254661833 388.3183274619621 A 160 160 0 0 1 625.1370849898476 398.8629150101524 L 681.7056274847714 342.2943725152286 A 240 240 0 0 0 664.2543881992749 326.47749119294315 Z" fill="black" stroke="black" stroke-width="1"/>
<path d="M 794.842712474619 229.15728752538104 A 400 400 0 0 1 821.2041813450949 258.2426863345418 L 883.0450176141137 207.49122360145014 A 480 480 0 0 0 851.4112549695428 172.58874503045723 Z" fill="white" stroke="black" stroke-width="1"/>
<path d="M 738.2741699796952 285.7258300203048 A 320 320 0 0 1 759.3633450760758 308.99414906763343 L 821.2041813450949 258.2426863345418 A 400 400 0 0 0 794.842712474619 229.15728752538104 Z" fill="white" stroke="black" stroke-width="1"/>
<path d="M 681.7056274847714 342.2943725152286 A 240 240 0 0 1 697.5225088070569 359.7456118007251 L 759.3633450760758 308.99414906763343 A 320 320 0 0 0 738.2741699796952 285.7258300203048 Z" fill="white" stroke="black" stroke-width="1"/>
<path d="M 625.1370849898476 398.8629150101524 A 160 160 0 0 1 635.6816725380379 410.4970745338167 L 697.5225088070569 359.7456118007251 A 240 240 0 0 0 681.7056274847714 342.2943725152286 Z" fill="black" stroke="black" stroke-width="1"/>
<path d="M 821.2041813450949 258.2426863345418 A 400 400 0 0 1 844.5878449210181 289.77190679215914 L 911.1054139052217 245.32628815059093 A 480 480 0 0 0 883.0450176141137 207.49122360145014 Z" fill="white" stroke="black" stroke-width="1"/>
<path d="M 759.3633450760758 308.99414906763343 A 320 320 0 0 1 778.0702759368145 334.2175254337273 L 844.5878449210181 289.77190679215914 A 400 400 0 0 0 821.2041813450949 258.2426863345418 Z" fill="white" stroke="black" stroke-width="1"/>
<path d="M 697.5225088070569 359.7456118007251 A 240 240 0 0 1 711.5527069526108 378.66314407529546 L 778.0702759368145 334.2175254337273 A 320 320 0 0 0 759.3633450760758 308.99414906763343 Z" fill="white" stroke="black" stroke-width="1"/>
<path d="M 635.6816725380379 410.4970745338167 A 160 160 0 0 1 645.0351379684073 423.1087627168637 L 711.5527069526108 378.66314407529546 A 240 240 0 0 0 697.5225088070569 359.7456118007251 Z" fill="white" stroke="black" stroke-width="1"/>
<path d="M 844.5878449210181 289.77190679215914 A 400 400 0 0 1 864.768505739342 323.44130526960095 L 935.3222068872104 285.7295663235211 A 480 480 0 0 0 911.1054139052217 245.32628815059093 Z" fill="white" stroke="black" stroke-width="1"/>
<path d="M 778.0702759368145 334.2175254337273 A 320 320 0 0 1 794.2148045914737 361.1530442156808 L 864.768505739342 323.44130526960095 A 400 400 0 0 0 844.5878449210181 289.77190679215914 Z" fill="white" stroke="black" stroke-width="1"/>
<path d="M 711.5527069526108 378.66314407529546 A 240 240 0 0 1 723.6611034436053 398.86478316176056 L 794.2148045914737 361.1530442156808 A 320 320 0 0 0 778.0702759368145 334.2175254337273 Z" fill="white" stroke="black" stroke-width="1"/>
<path d="M 645.0351379684073 423.1087627168637 A 160 160 0 0 1 653.1074022957368 436.5765221078404 L 723.6611034436053 398.86478316176056 A 240 240 0 0 0 711.5527069526108 378.66314407529546 Z" fill="white" stroke="black" stroke-width="1"/>
<path d="M 864.768505739342 323.4413052696009 A 400 400 0 0 1 881.5518130045148 358.92662705396407 L 955.4621756054177 328.31195246475687 A 480 480 0 0 0 935.3222068872103 285.7295663235211 Z" fill="white" stroke="black" stroke-width="1"/>
<path d="M 794.2148045914736 361.1530442156807 A 320 320 0 0 1 807.6414504036118 389.54130164317127 L 881.5518130045148 358.92662705396407 A 400 400 0 0 0 864.768505739342 323.4413052696009 Z" fill="black" stroke="black" stroke-width="1"/>
<path d="M 723.6611034436052 398.86478316176056 A 240 240 0 0 1 733.7310878027088 420.1559762323784 L 807.6414504036118 389.54130164317127 A 320 320 0 0 0 794.2148045914736 361.1530442156807 Z" fill="black" stroke="black" stroke-width="1"/>
<path d="M 653.1074022957368 436.57652210784033 A 160 160 0 0 1 659.8207252018059 450.7706508215856 L 733.7310878027088 420.1559762323784 A 240 240 0 0 0 723.6611034436052 398.86478316176056 Z" fill="white" stroke="black" stroke-width="1"/>
<path d="M 881.5518130045148 358.9266270539641 A 400 400 0 0 1 894.7761342928835 395.88612909821506 L 971.3313611514602 372.6633549178581 A 480 480 0 0 0 955.4621756054177 328.3119524647569 Z" fill="black" stroke="black" stroke-width="1"/>
<path d="M 807.6414504036118 389.54130164317127 A 320 320 0 0 1 818.2209074343068 419.10890327857203 L 894.7761342928835 395.88612909821506 A 400 400 0 0 0 881.5518130045148 358.9266270539641 Z" fill="black" stroke="black" stroke-width="1"/>
<path d="M 733.7310878027088 420.15597623237846 A 240 240 0 0 1 741.6656805757301 442.33167745892905 L 818.2209074343068 419.10890327857203 A 320 320 0 0 0 807.6414504036118 389.54130164317127 Z" fill="black" stroke="black" stroke-width="1"/>
<path d="M 659.8207252018059 450.7706508215856 A 160 160 0 0 1 665.1104537171534 465.554451639286 L 741.6656805757301 442.33167745892905 A 240 240 0 0 0 733.7310878027088 420.15597623237846 Z" fill="black" stroke="black" stroke-width="1"/>
<path d="M 894.7761342928836 395.88612909821506 A 400 400 0 0 1 904.3141121612922 433.96387119354875 L 982.7769345935505 418.35664543225846 A 480 480 0 0 0 971.3313611514602 372.6633549178581 Z" fill="white" stroke="black" stroke-width="1"/>
<path d="M 818.2209074343068 419.1089032785721 A 320 320 0 0 1 825.8512897290337 449.571096954839 L 904.3141121612922 433.96387119354875 A 400 400 0 0 0 894.7761342928836 395.88612909821506 Z" fill="white" stroke="black" stroke-width="1"/>
<path d="M 741.6656805757301 442.33167745892905 A 240 240 0 0 1 747.3884672967753 465.17832271612923 L 825.8512897290337 449.571096954839 A 320 320 0 0 0 818.2209074343068 419.1089032785721 Z" fill="black" stroke="black" stroke-width="1"/>
<path d="M 665.1104537171534 465.554451639286 A 160 160 0 0 1 668.9256448645169 480.78554847741947 L 747.3884672967753 465.17832271612923 A 240 240 0 0 0 741.6656805757301 442.33167745892905 Z" fill="white" stroke="black" stroke-width="1"/>
<path d="M 904.3141121612922 433.9638711935487 A 400 400 0 0 1 910.0738906688788 472.7931438681758 L 989.6886688026545 464.9517726418109 A 480 480 0 0 0 982.7769345935505 418.35664543225846 Z" fill="white" stroke="black" stroke-width="1"/>
<path d="M 825.8512897290337 449.57109695483894 A 320 320 0 0 1 830.459112535103 480.63451509454063 L 910.0738906688788 472.7931438681758 A 400 400 0 0 0 904.3141121612922 433.9638711935487 Z" fill="white" stroke="black" stroke-width="1"/>
<path d="M 747.3884672967753 465.17832271612923 A 240 240 0 0 1 750.8443344013273 488.47588632090543 L 830.459112535103 480.63451509454063 A 320 320 0 0 0 825.8512897290337 449.57109695483894 Z" fill="white" stroke="black" stroke-width="1"/>
<path d="M 668.9256448645169 480.78554847741947 A 160 160 0 0 1 671.2295562675515 496.3172575472703 L 750.8443344013273 488.47588632090543 A 240 240 0 0 0 747.3884672967753 465.17832271612923 Z" fill="white" stroke="black" stroke-width="1"/>
<path d="M 910.0738906688788 472.7931438681757 A 400 400 0 0 1 912 511.99999999999994 L 992 511.99999999999994 A 480 480 0 0 0 989.6886688026545 464.95177264181086 Z" fill="black" stroke="black" stroke-width="1"/>
<path d="M 830.459112535103 480.6345150945406 A 320 320 0 0 1 832 511.99999999999994 L 912 511.99999999999994 A 400 400 0 0 0 910.0738906688788 472.7931438681757 Z" fill="white" stroke="black" stroke-width="1"/>
<path d="M 750.8443344013273 488.47588632090543 A 240 240 0 0 1 752 512 L 832 511.99999999999994 A 320 320 0 0 0 830.459112535103 480.6345150945406 Z" fill="white" stroke="black" stroke-width="1"/>
<path d="M 671.2295562675515 496.3172575472703 A 160 160 0 0 1 672 512 L 752 512 A 240 240 0 0 0 750.8443344013273 488.47588632090543 Z" fill="black" stroke="black" stroke-width="1"/>
<path d="M 912 512 A 400 400 0 0 1 910.0738906688788 551.2068561318242 L 989.6886688026545 559.0482273581891 A 480 480 0 0 0 992 512 Z" fill="white" stroke="black" stroke-width="1"/>
<path d="M 832 512 A 320 320 0 0 1 830.459112535103 543.3654849054594 L 910.0738906688788 551.2068561318242 A 400 400 0 0 0 912 512 Z" fill="black" stroke="black" stroke-width="1"/>
<path d="M 752 512 A 240 240 0 0 1 750.8443344013273 535.5241136790945 L 830.459112535103 543.3654849054594 A 320 320 0 0 0 832 512 Z" fill="black" stroke="black" stroke-width="1"/>
<path d="M 672 512 A 160 160 0 0 1 671.2295562675515 527.6827424527297 L 750.8443344013273 535.5241136790945 A 240 240 0 0 0 752 512 Z" fill="white" stroke="black" stroke-width="1"/>
<path d="M 910.0738906688788 551.2068561318243 A 400 400 0 0 1 904.3141121612922 590.0361288064513 L 982.7769345935505 605.6433545677417 A 480 480 0 0 0 989.6886688026545 559.0482273581891 Z" fill="black" stroke="black" stroke-width="1"/>
<path d="M 830.459112535103 543.3654849054594 A 320 320 0 0 1 825.8512897290337 574.4289030451611 L 904.3141121612922 590.0361288064513 A 400 400 0 0 0 910.0738906688788 551.2068561318243 Z" fill="white" stroke="black" stroke-width="1"/>
<path d="M 750.8443344013273 535.5241136790946 A 240 240 0 0 1 747.3884672967753 558.8216772838708 L 825.8512897290337 574.4289030451611 A 320 320 0 0 0 830.459112535103 543.3654849054594 Z" fill="white" stroke="black" stroke-width="1"/>
<path d="M 671.2295562675515 527.6827424527297 A 160 160 0 0 1 668.9256448645169 543.2144515225806 L 747.3884672967753 558.8216772838708 A 240 240 0 0 0 750.8443344013273 535.5241136790946 Z" fill="black" stroke="black" stroke-width="1"/>
<path d="M 904.3141121612922 590.0361288064513 A 400 400 0 0 1 894.7761342928835 628.1138709017849 L 971.3313611514602 651.3366450821419 A 480 480 0 0 0 982.7769345935505 605.6433545677415 Z" fill="black" stroke="black" stroke-width="1"/>
<path d="M 825.8512897290337 574.4289030451611 A 320 320 0 0 1 818.2209074343068 604.891096721428 L 894.7761342928835 628.1138709017849 A 400 400 0 0 0 904.3141121612922 590.0361288064513 Z" fill="white" stroke="black" stroke-width="1"/>
<path d="M 747.3884672967753 558.8216772838708 A 240 240 0 0 1 741.6656805757301 581.668322541071 L 818.2209074343068 604.891096721428 A 320 320 0 0 0 825.8512897290337 574.4289030451611 Z" fill="black" stroke="black" stroke-width="1"/>
<path d="M 668.9256448645169 543.2144515225805 A 160 160 0 0 1 665.1104537171534 558.4455483607139 L 741.6656805757301 581.668322541071 A 240 240 0 0 0 747.3884672967753 558.8216772838708 Z" fill="white" stroke="black" stroke-width="1"/>
<path d="M 894.7761342928836 628.1138709017849 A 400 400 0 0 1 881.5518130045148 665.0733729460359 L 955.4621756054178 695.6880475352431 A 480 480 0 0 0 971.3313611514602 651.3366450821419 Z" fill="white" stroke="black" stroke-width="1"/>
<path d="M 818.2209074343068 604.891096721428 A 320 320 0 0 1 807.6414504036118 634.4586983568287 L 881.5518130045148 665.0733729460359 A 400 400 0 0 0 894.7761342928836 628.1138709017849 Z" fill="black" stroke="black" stroke-width="1"/>
<path d="M 741.6656805757301 581.6683225410709 A 240 240 0 0 1 733.7310878027089 603.8440237676215 L 807.6414504036118 634.4586983568287 A 320 320 0 0 0 818.2209074343068 604.891096721428 Z" fill="white" stroke="black" stroke-width="1"/>
<path d="M 665.1104537171534 558.4455483607139 A 160 160 0 0 1 659.8207252018059 573.2293491784144 L 733.7310878027089 603.8440237676215 A 240 240 0 0 0 741.6656805757301 581.6683225410709 Z" fill="white" stroke="black" stroke-width="1"/>
<path d="M 881.5518130045148 665.0733729460359 A 400 400 0 0 1 864.768505739342 700.5586947303991 L 935.3222068872104 738.2704336764789 A 480 480 0 0 0 955.4621756054177 695.6880475352431 Z" fill="white" stroke="black" stroke-width="1"/>
<path d="M 807.6414504036118 634.4586983568288 A 320 320 0 0 1 794.2148045914737 662.8469557843192 L 864.768505739342 700.5586947303991 A 400 400 0 0 0 881.5518130045148 665.0733729460359 Z" fill="black" stroke="black" stroke-width="1"/>
<path d="M 733.7310878027088 603.8440237676216 A 240 240 0 0 1 723.6611034436053 625.1352168382394 L 794.2148045914737 662.8469557843192 A 320 320 0 0 0 807.6414504036118 634.4586983568288 Z" fill="white" stroke="black" stroke-width="1"/>
<path d="M 659.8207252018059 573.2293491784144 A 160 160 0 0 1 653.1074022957368 587.4234778921597 L 723.6611034436053 625.1352168382394 A 240 240 0 0 0 733.7310878027088 603.8440237676216 Z" fill="white" stroke="black" stroke-width="1"/>
<path d="M 864.768505739342 700.5586947303991 A 400 400 0 0 1 844.5878449210181 734.2280932078409 L 911.1054139052217 778.6737118494091 A 480 480 0 0 0 935.3222068872103 738.2704336764789 Z" fill="black" stroke="black" stroke-width="1"/>
<path d="M 794.2148045914736 662.8469557843193 A 320 320 0 0 1 778.0702759368145 689.7824745662728 L 844.5878449210181 734.2280932078409 A 400 400 0 0 0 864.768505739342 700.5586947303991 Z" fill="black" stroke="black" stroke-width="1"/>
<path d="M 723.6611034436052 625.1352168382394 A 240 240 0 0 1 711.5527069526108 645.3368559247045 L 778.0702759368145 689.7824745662728 A 320 320 0 0 0 794.2148045914736 662.8469557843193 Z" fill="black" stroke="black" stroke-width="1"/>
<path d="M 653.1074022957368 587.4234778921597 A 160 160 0 0 1 645.0351379684073 600.8912372831363 L 711.5527069526108 645.3368559247045 A 240 240 0 0 0 723.6611034436052 625.1352168382394 Z" fill="white" stroke="black" stroke-width="1"/>
<path d="M 844.5878449210181 734.2280932078409 A 400 400 0 0 1 821.2041813450949 765.7573136654581 L 883.0450176141138 816.5087763985498 A 480 480 0 0 0 911.1054139052218 778.6737118494091 Z" fill="white" stroke="black" stroke-width="1"/>
<path d="M 778.0702759368145 689.7824745662726 A 320 320 0 0 1 759.3633450760758 715.0058509323665 L 821.2041813450949 765.7573136654581 A 400 400 0 0 0 844.5878449210181 734.2280932078409 Z" fill="white" stroke="black" stroke-width="1"/>
<path d="M 711.5527069526108 645.3368559247045 A 240 240 0 0 1 697.522508807057 664.2543881992749 L 759.3633450760758 715.0058509323665 A 320 320 0 0 0 778.0702759368145 689.7824745662726 Z" fill="white" stroke="black" stroke-width="1"/>
<path d="M 645.0351379684073 600.8912372831363 A 160 160 0 0 1 635.6816725380379 613.5029254661832 L 697.522508807057 664.2543881992749 A 240 240 0 0 0 711.5527069526108 645.3368559247045 Z" fill="white" stroke="black" stroke-width="1"/>
<path d="M 821.2041813450949 765.7573136654581 A 400 400 0 0 1 794.842712474619 794.842712474619 L 851.4112549695428 851.4112549695428 A 480 480 0 0 0 883.0450176141138 816.5087763985498 Z" fill="white" stroke="black" stroke-width="1"/>
<path d="M 759.3633450760758 715.0058509323665 A 320 320 0 0 1 738.2741699796952 738.2741699796952 L 794.842712474619 794.842712474619 A 400 400 0 0 0 821.2041813450949 765.7573136654581 Z" fill="black" stroke="black" stroke-width="1"/>
<path d="M 697.522508807057 664.2543881992749 A 240 240 0 0 1 681.7056274847714 681.7056274847714 L 738.2741699796952 738.2741699796952 A 320 320 0 0 0 759.3633450760758 715.0058509323665 Z" fill="black" stroke="black" stroke-width="1"/>
<path d="M 635.6816725380379 613.5029254661832 A 160 160 0 0 1 625.1370849898476 625.1370849898476 L 681.7056274847714 681.7056274847714 A 240 240 0 0 0 697.522508807057 664.2543881992749 Z" fill="black" stroke="black" stroke-width="1"/>
<path d="M 794.842712474619 794.842712474619 A 400 400 0 0 1 765.7573136654582 821.2041813450948 L 816.5087763985498 883.0450176141137 A 480 480 0 0 0 851.4112549695428 851.4112549695428 Z" fill="black" stroke="black" stroke-width="1"/>
<path d="M 738.2741699796952 738.2741699796952 A 320 320 0 0 1 715.0058509323666 759.3633450760758 L 765.7573136654582 821.2041813450948 A 400 400 0 0 0 794.842712474619 794.842712474619 Z" fill="black" stroke="black" stroke-width="1"/>
<path d="M 681.7056274847714 681.7056274847714 A 240 240 0 0 1 664.2543881992749 697.5225088070569 L 715.0058509323666 759.3633450760758 A 320 320 0 0 0 738.2741699796952 738.2741699796952 Z" fill="black" stroke="black" stroke-width="1"/>
<path d="M 625.1370849898476 625.1370849898476 A 160 160 0 0 1 613.5029254661833 635.6816725380379 L 664.2543881992749 697.5225088070569 A 240 240 0 0 0 681.7056274847714 681.7056274847714 Z" fill="black" stroke="black" stroke-width="1"/>
<path d="M 765.7573136654582 821.2041813450949 A 400 400 0 0 1 734.2280932078409 844.5878449210181 L 778.6737118494091 911.1054139052217 A 480 480 0 0 0 816.5087763985498 883.0450176141137 Z" fill="black" stroke="black" stroke-width="1"/>
<path d="M 715.0058509323666 759.3633450760758 A 320 320 0 0 1 689.7824745662726 778.0702759368145 L 734.2280932078409 844.5878449210181 A 400 400 0 0 0 765.7573136654582 821.2041813450949 Z" fill="black" stroke="black" stroke-width="1"/>
<path d="M 664.2543881992749 697.5225088070569 A 240 240 0 0 1 645.3368559247045 711.5527069526108 L 689.7824745662726 778.0702759368145 A 320 320 0 0 0 715.0058509323666 759.3633450760758 Z" fill="white" stroke="black" stroke-width="1"/>
<path d="M 613.5029254661833 635.6816725380379 A 160 160 0 0 1 600.8912372831363 645.0351379684073 L 645.3368559247045 711.5527069526108 A 240 240 0 0 0 664.2543881992749 697.5225088070569 Z" fill="white" stroke="black" stroke-width="1"/>
<path d="M 734.2280932078409 844.5878449210181 A 400 400 0 0 1 700.5586947303989 864.7685057393421 L 738.2704336764788 935.3222068872105 A 480 480 0 0 0 778.6737118494091 911.1054139052218 Z" fill="black" stroke="black" stroke-width="1"/>
<path d="M 689.7824745662726 778.0702759368145 A 320 320 0 0 1 662.8469557843191 794.2148045914737 L 700.5586947303989 864.7685057393421 A 400 400 0 0 0 734.2280932078409 844.5878449210181 Z" fill="white" stroke="black" stroke-width="1"/>
<path d="M 645.3368559247045 711.5527069526108 A 240 240 0 0 1 625.1352168382393 723.6611034436053 L 662.8469557843191 794.2148045914737 A 320 320 0 0 0 689.7824745662726 778.0702759368145 Z" fill="white" stroke="black" stroke-width="1"/>
<path d="M 600.8912372831363 645.0351379684073 A 160 160 0 0 1 587.4234778921596 653.1074022957368 L 625.1352168382393 723.6611034436053 A 240 240 0 0 0 645.3368559247045 711.5527069526108 Z" fill="black" stroke="black" stroke-width="1"/>
<path d="M 700.5586947303991 864.768505739342 A 400 400 0 0 1 665.073372946036 881.5518130045148 L 695.6880475352432 955.4621756054177 A 480 480 0 0 0 738.2704336764789 935.3222068872103 Z" fill="black" stroke="black" stroke-width="1"/>
<path d="M 662.8469557843193 794.2148045914736 A 320 320 0 0 1 634.4586983568288 807.6414504036118 L 665.073372946036 881.5518130045148 A 400 400 0 0 0 700.5586947303991 864.768505739342 Z" fill="white" stroke="black" stroke-width="1"/>
<path d="M 625.1352168382394 723.6611034436052 A 240 240 0 0 1 603.8440237676216 733.7310878027088 L 634.4586983568288 807.6414504036118 A 320 320 0 0 0 662.8469557843193 794.2148045914736 Z" fill="black" stroke="black" stroke-width="1"/>
<path d="M 587.4234778921597 653.1074022957368 A 160 160 0 0 1 573.2293491784144 659.8207252018059 L 603.8440237676216 733.7310878027088 A 240 240 0 0 0 625.1352168382394 723.6611034436052 Z" fill="white" stroke="black" stroke-width="1"/>
<path d="M 665.073372946036 881.5518130045148 A 400 400 0 0 1 628.1138709017849 894.7761342928836 L 651.3366450821419 971.3313611514602 A 480 480 0 0 0 695.6880475352432 955.4621756054177 Z" fill="white" stroke="black" stroke-width="1"/>
<path d="M 634.4586983568288 807.6414504036118 A 320 320 0 0 1 604.891096721428 818.2209074343068 L 628.1138709017849 894.7761342928836 A 400 400 0 0 0 665.073372946036 881.5518130045148 Z" fill="black" stroke="black" stroke-width="1"/>
<path d="M 603.8440237676216 733.7310878027088 A 240 240 0 0 1 581.668322541071 741.6656805757301 L 604.891096721428 818.2209074343068 A 320 320 0 0 0 634.4586983568288 807.6414504036118 Z" fill="white" stroke="black" stroke-width="1"/>
<path d="M 573.2293491784144 659.8207252018059 A 160 160 0 0 1 558.4455483607139 665.1104537171534 L 581.668322541071 741.6656805757301 A 240 240 0 0 0 603.8440237676216 733.7310878027088 Z" fill="black" stroke="black" stroke-width="1"/>
<path d="M 628.1138709017849 894.7761342928836 A 400 400 0 0 1 590.0361288064512 904.3141121612922 L 605.6433545677415 982.7769345935505 A 480 480 0 0 0 651.3366450821419 971.3313611514602 Z" fill="black" stroke="black" stroke-width="1"/>
<path d="M 604.891096721428 818.2209074343068 A 320 320 0 0 1 574.428903045161 825.8512897290337 L 590.0361288064512 904.3141121612922 A 400 400 0 0 0 628.1138709017849 894.7761342928836 Z" fill="white" stroke="black" stroke-width="1"/>
<path d="M 581.668322541071 741.6656805757301 A 240 240 0 0 1 558.8216772838707 747.3884672967753 L 574.428903045161 825.8512897290337 A 320 320 0 0 0 604.891096721428 818.2209074343068 Z" fill="black" stroke="black" stroke-width="1"/>
<path d="M 558.4455483607139 665.1104537171534 A 160 160 0 0 1 543.2144515225805 668.9256448645169 L 558.8216772838707 747.3884672967753 A 240 240 0 0 0 581.668322541071 741.6656805757301 Z" fill="black" stroke="black" stroke-width="1"/>
<path d="M 590.0361288064514 904.3141121612922 A 400 400 0 0 1 551.2068561318243 910.0738906688787 L 559.0482273581891 989.6886688026545 A 480 480 0 0 0 605.6433545677417 982.7769345935505 Z" fill="white" stroke="black" stroke-width="1"/>
<path d="M 574.4289030451612 825.8512897290337 A 320 320 0 0 1 543.3654849054594 830.459112535103 L 551.2068561318243 910.0738906688787 A 400 400 0 0 0 590.0361288064514 904.3141121612922 Z" fill="white" stroke="black" stroke-width="1"/>
<path d="M 558.8216772838708 747.3884672967753 A 240 240 0 0 1 535.5241136790946 750.8443344013273 L 543.3654849054594 830.459112535103 A 320 320 0 0 0 574.4289030451612 825.8512897290337 Z" fill="white" stroke="black" stroke-width="1"/>
<path d="M 543.2144515225806 668.9256448645169 A 160 160 0 0 1 527.6827424527297 671.2295562675515 L 535.5241136790946 750.8443344013273 A 240 240 0 0 0 558.8216772838708 747.3884672967753 Z" fill="white" stroke="black" stroke-width="1"/>
<path d="M 551.2068561318243 910.0738906688787 A 400 400 0 0 1 512 912 L 512 992 A 480 480 0 0 0 559.0482273581891 989.6886688026545 Z" fill="white" stroke="black" stroke-width="1"/>
<path d="M 543.3654849054594 830.459112535103 A 320 320 0 0 1 512 832 L 512 912 A 400 400 0 0 0 551.2068561318243 910.0738906688787 Z" fill="black" stroke="black" stroke-width="1"/>
<path d="M 535.5241136790946 750.8443344013273 A 240 240 0 0 1 512 752 L 512 832 A 320 320 0 0 0 543.3654849054594 830.459112535103 Z" fill="white" stroke="black" stroke-width="1"/>
<path d="M 527.6827424527297 671.2295562675515 A 160 160 0 0 1 512 672 L 512 752 A 240 240 0 0 0 535.5241136790946 750.8443344013273 Z" fill="black" stroke="black" stroke-width="1"/>
<path d="M 512 912 A 400 400 0 0 1 472.7931438681757 910.0738906688788 L 464.95177264181086 989.6886688026545 A 480 480 0 0 0 512 992 Z" fill="black" stroke="black" stroke-width="1"/>
<path d="M 512 832 A 320 320 0 0 1 480.6345150945406 830.459112535103 L 472.7931438681757 910.0738906688788 A 400 400 0 0 0 512 912 Z" fill="black" stroke="black" stroke-width="1"/>
<path d="M 512 752 A 240 240 0 0 1 488.47588632090543 750.8443344013273 L 480.6345150945406 830.459112535103 A 320 320 0 0 0 512 832 Z" fill="black" stroke="black" stroke-width="1"/>
<path d="M 512 672 A 160 160 0 0 1 496.3172575472703 671.2295562675515 L 488.47588632090543 750.8443344013273 A 240 240 0 0 0 512 752 Z" fill="black" stroke="black" stroke-width="1"/>
<path d="M 472.7931438681757 910.0738906688788 A 400 400 0 0 1 433.96387119354864 904.3141121612922 L 418.35664543225835 982.7769345935505 A 480 480 0 0 0 464.95177264181086 989.6886688026545 Z" fill="black" stroke="black" stroke-width="1"/>
<path d="M 480.6345150945406 830.459112535103 A 320 320 0 0 1 449.57109695483894 825.8512897290337 L 433.96387119354864 904.3141121612922 A 400 400 0 0 0 472.7931438681757 910.0738906688788 Z" fill="black" stroke="black" stroke-width="1"/>
<path d="M 488.47588632090543 750.8443344013273 A 240 240 0 0 1 465.1783227161292 747.3884672967753 L 449.57109695483894 825.8512897290337 A 320 320 0 0 0 480.6345150945406 830.459112535103 Z" fill="white" stroke="black" stroke-width="1"/>
<path d="M 496.3172575472703 671.2295562675515 A 160 160 0 0 1 480.78554847741947 668.9256448645169 L 465.1783227161292 747.3884672967753 A 240 240 0 0 0 488.47588632090543 750.8443344013273 Z" fill="white" stroke="black" stroke-width="1"/>
<path d="M 433.96387119354864 904.3141121612922 A 400 400 0 0 1 395.88612909821495 894.7761342928835 L 372.663354917858 971.3313611514602 A 480 480 0 0 0 418.35664543225835 982.7769345935505 Z" fill="white" stroke="black" stroke-width="1"/>
<path d="M 449.57109695483894 825.8512897290337 A 320 320 0 0 1 419.108903278572 818.2209074343068 L 395.88612909821495 894.7761342928835 A 400 400 0 0 0 433.96387119354864 904.3141121612922 Z" fill="white" stroke="black" stroke-width="1"/>
<path d="M 465.1783227161292 747.3884672967753 A 240 240 0 0 1 442.331677458929 741.6656805757301 L 419.108903278572 818.2209074343068 A 320 320 0 0 0 449.57109695483894 825.8512897290337 Z" fill="black" stroke="black" stroke-width="1"/>
<path d="M 480.78554847741947 668.9256448645169 A 160 160 0 0 1 465.55445163928596 665.1104537171534 L 442.331677458929 741.6656805757301 A 240 240 0 0 0 465.1783227161292 747.3884672967753 Z" fill="white" stroke="black" stroke-width="1"/>
<path d="M 395.8861290982151 894.7761342928836 A 400 400 0 0 1 358.9266270539641 881.5518130045148 L 328.3119524647569 955.4621756054177 A 480 480 0 0 0 372.66335491785816 971.3313611514602 Z" fill="black" stroke="black" stroke-width="1"/>
<path d="M 419.10890327857214 818.2209074343068 A 320 320 0 0 1 389.5413016431713 807.6414504036118 L 358.9266270539641 881.5518130045148 A 400 400 0 0 0 395.8861290982151 894.7761342928836 Z" fill="white" stroke="black" stroke-width="1"/>
<path d="M 442.3316774589291 741.6656805757301 A 240 240 0 0 1 420.15597623237846 733.7310878027088 L 389.5413016431713 807.6414504036118 A 320 320 0 0 0 419.10890327857214 818.2209074343068 Z" fill="black" stroke="black" stroke-width="1"/>
<path d="M 465.55445163928607 665.1104537171534 A 160 160 0 0 1 450.77065082158566 659.8207252018059 L 420.15597623237846 733.7310878027088 A 240 240 0 0 0 442.3316774589291 741.6656805757301 Z" fill="white" stroke="black" stroke-width="1"/>
<path d="M 358.9266270539641 881.5518130045148 A 400 400 0 0 1 323.4413052696009 864.768505739342 L 285.7295663235211 935.3222068872104 A 480 480 0 0 0 328.3119524647569 955.4621756054177 Z" fill="black" stroke="black" stroke-width="1"/>
<path d="M 389.5413016431713 807.6414504036118 A 320 320 0 0 1 361.1530442156807 794.2148045914737 L 323.4413052696009 864.768505739342 A 400 400 0 0 0 358.9266270539641 881.5518130045148 Z" fill="white" stroke="black" stroke-width="1"/>
<path d="M 420.15597623237846 733.7310878027088 A 240 240 0 0 1 398.86478316176056 723.6611034436053 L 361.1530442156807 794.2148045914737 A 320 320 0 0 0 389.5413016431713 807.6414504036118 Z" fill="black" stroke="black" stroke-width="1"/>
<path d="M 450.77065082158566 659.8207252018059 A 160 160 0 0 1 436.57652210784033 653.1074022957368 L 398.86478316176056 723.6611034436053 A 240 240 0 0 0 420.15597623237846 733.7310878027088 Z" fill="white" stroke="black" stroke-width="1"/>
<path d="M 323.4413052696009 864.768505739342 A 400 400 0 0 1 289.7719067921591 844.5878449210181 L 245.32628815059093 911.1054139052217 A 480 480 0 0 0 285.7295663235211 935.3222068872104 Z" fill="white" stroke="black" stroke-width="1"/>
<path d="M 361.1530442156807 794.2148045914737 A 320 320 0 0 1 334.21752543372725 778.0702759368144 L 289.7719067921591 844.5878449210181 A 400 400 0 0 0 323.4413052696009 864.768505739342 Z" fill="black" stroke="black" stroke-width="1"/>
<path d="M 398.86478316176056 723.6611034436053 A 240 240 0 0 1 378.66314407529546 711.5527069526108 L 334.21752543372725 778.0702759368144 A 320 320 0 0 0 361.1530442156807 794.2148045914737 Z" fill="black" stroke="black" stroke-width="1"/>
<path d="M 436.57652210784033 653.1074022957368 A 160 160 0 0 1 423.1087627168636 645.0351379684072 L 378.66314407529546 711.5527069526108 A 240 240 0 0 0 398.86478316176056 723.6611034436053 Z" fill="white" stroke="black" stroke-width="1"/>
<path d="M 289.77190679215926 844.5878449210181 A 400 400 0 0 1 258.2426863345419 821.2041813450949 L 207.4912236014502 883.0450176141138 A 480 480 0 0 0 245.32628815059104 911.1054139052218 Z" fill="white" stroke="black" stroke-width="1"/>
<path d="M 334.21752543372736 778.0702759368145 A 320 320 0 0 1 308.9941490676335 759.3633450760758 L 258.2426863345419 821.2041813450949 A 400 400 0 0 0 289.77190679215926 844.5878449210181 Z" fill="black" stroke="black" stroke-width="1"/>
<path d="M 378.6631440752955 711.5527069526108 A 240 240 0 0 1 359.7456118007251 697.522508807057 L 308.9941490676335 759.3633450760758 A 320 320 0 0 0 334.21752543372736 778.0702759368145 Z" fill="white" stroke="black" stroke-width="1"/>
<path d="M 423.1087627168637 645.0351379684073 A 160 160 0 0 1 410.4970745338168 635.6816725380379 L 359.7456118007251 697.522508807057 A 240 240 0 0 0 378.6631440752955 711.5527069526108 Z" fill="black" stroke="black" stroke-width="1"/>
<path d="M 258.2426863345419 821.2041813450949 A 400 400 0 0 1 229.15728752538104 794.842712474619 L 172.58874503045723 851.4112549695428 A 480 480 0 0 0 207.4912236014502 883.0450176141138 Z" fill="black" stroke="black" stroke-width="1"/>
<path d="M 308.9941490676335 759.3633450760758 A 320 320 0 0 1 285.7258300203048 738.2741699796952 L 229.15728752538104 794.842712474619 A 400 400 0 0 0 258.2426863345419 821.2041813450949 Z" fill="black" stroke="black" stroke-width="1"/>
<path d="M 359.7456118007251 697.522508807057 A 240 240 0 0 1 342.2943725152286 681.7056274847714 L 285.7258300203048 738.2741699796952 A 320 320 0 0 0 308.9941490676335 759.3633450760758 Z" fill="white" stroke="black" stroke-width="1"/>
<path d="M 410.4970745338168 635.6816725380379 A 160 160 0 0 1 398.8629150101524 625.1370849898476 L 342.2943725152286 681.7056274847714 A 240 240 0 0 0 359.7456118007251 697.522508807057 Z" fill="white" stroke="black" stroke-width="1"/>
<path d="M 229.15728752538104 794.842712474619 A 400 400 0 0 1 202.7958186549052 765.7573136654582 L 140.95498238588624 816.5087763985498 A 480 480 0 0 0 172.58874503045723 851.4112549695428 Z" fill="black" stroke="black" stroke-width="1"/>
<path d="M 285.7258300203048 738.2741699796952 A 320 320 0 0 1 264.6366549239242 715.0058509323666 L 202.7958186549052 765.7573136654582 A 400 400 0 0 0 229.15728752538104 794.842712474619 Z" fill="black" stroke="black" stroke-width="1"/>
<path d="M 342.2943725152286 681.7056274847714 A 240 240 0 0 1 326.47749119294315 664.2543881992749 L 264.6366549239242 715.0058509323666 A 320 320 0 0 0 285.7258300203048 738.2741699796952 Z" fill="black" stroke="black" stroke-width="1"/>
<path d="M 398.8629150101524 625.1370849898476 A 160 160 0 0 1 388.3183274619621 613.5029254661833 L 326.47749119294315 664.2543881992749 A 240 240 0 0 0 342.2943725152286 681.7056274847714 Z" fill="black" stroke="black" stroke-width="1"/>
<path d="M 202.79581865490536 765.7573136654584 A 400 400 0 0 1 179.41215507898198 734.228093207841 L 112.89458609477839 778.6737118494092 A 480 480 0 0 0 140.9549823858864 816.50877639855 Z" fill="white" stroke="black" stroke-width="1"/>
<path d="M 264.63665492392425 715.0058509323667 A 320 320 0 0 1 245.92972406318557 689.7824745662729 L 179.41215507898198 734.228093207841 A 400 400 0 0 0 202.79581865490536 765.7573136654584 Z" fill="white" stroke="black" stroke-width="1"/>
<path d="M 326.4774911929432 664.254388199275 A 240 240 0 0 1 312.44729304738917 645.3368559247047 L 245.92972406318557 689.7824745662729 A 320 320 0 0 0 264.63665492392425 715.0058509323667 Z" fill="white" stroke="black" stroke-width="1"/>
<path d="M 388.3183274619621 613.5029254661833 A 160 160 0 0 1 378.9648620315928 600.8912372831364 L 312.44729304738917 645.3368559247047 A 240 240 0 0 0 326.4774911929432 664.254388199275 Z" fill="white" stroke="black" stroke-width="1"/>
<path d="M 179.41215507898187 734.2280932078409 A 400 400 0 0 1 159.23149426065794 700.558694730399 L 88.67779311278952 738.2704336764788 A 480 480 0 0 0 112.89458609477822 778.6737118494091 Z" fill="white" stroke="black" stroke-width="1"/>
<path d="M 245.92972406318552 689.7824745662726 A 320 320 0 0 1 229.78519540852636 662.8469557843192 L 159.23149426065794 700.558694730399 A 400 400 0 0 0 179.41215507898187 734.2280932078409 Z" fill="white" stroke="black" stroke-width="1"/>
<path d="M 312.4472930473891 645.3368559247045 A 240 240 0 0 1 300.33889655639473 625.1352168382393 L 229.78519540852636 662.8469557843192 A 320 320 0 0 0 245.92972406318552 689.7824745662726 Z" fill="white" stroke="black" stroke-width="1"/>
<path d="M 378.96486203159276 600.8912372831363 A 160 160 0 0 1 370.89259770426315 587.4234778921596 L 300.33889655639473 625.1352168382393 A 240 240 0 0 0 312.4472930473891 645.3368559247045 Z" fill="white" stroke="black" stroke-width="1"/>
<path d="M 159.231494260658 700.5586947303991 A 400 400 0 0 1 142.4481869954853 665.073372946036 L 68.53782439458234 695.6880475352432 A 480 480 0 0 0 88.67779311278963 738.270433676479 Z" fill="white" stroke="black" stroke-width="1"/>
<path d="M 229.78519540852642 662.8469557843193 A 320 320 0 0 1 216.35854959638823 634.4586983568288 L 142.4481869954853 665.073372946036 A 400 400 0 0 0 159.231494260658 700.5586947303991 Z" fill="black" stroke="black" stroke-width="1"/>
<path d="M 300.33889655639484 625.1352168382394 A 240 240 0 0 1 290.2689121972912 603.8440237676216 L 216.35854959638823 634.4586983568288 A 320 320 0 0 0 229.78519540852642 662.8469557843193 Z" fill="black" stroke="black" stroke-width="1"/>
<path d="M 370.8925977042632 587.4234778921597 A 160 160 0 0 1 364.1792747981941 573.2293491784144 L 290.2689121972912 603.8440237676216 A 240 240 0 0 0 300.33889655639484 625.1352168382394 Z" fill="black" stroke="black" stroke-width="1"/>
<path d="M 142.4481869954854 665.0733729460361 A 400 400 0 0 1 129.2238657071165 628.113870901785 L 52.66863884853984 651.3366450821421 A 480 480 0 0 0 68.53782439458246 695.6880475352433 Z" fill="black" stroke="black" stroke-width="1"/>
<path d="M 216.35854959638834 634.4586983568289 A 320 320 0 0 1 205.7790925656932 604.8910967214281 L 129.2238657071165 628.113870901785 A 400 400 0 0 0 142.4481869954854 665.0733729460361 Z" fill="white" stroke="black" stroke-width="1"/>
<path d="M 290.26891219729123 603.8440237676217 A 240 240 0 0 1 282.3343194242699 581.6683225410711 L 205.7790925656932 604.8910967214281 A 320 320 0 0 0 216.35854959638834 634.4586983568289 Z" fill="black" stroke="black" stroke-width="1"/>
<path d="M 364.1792747981942 573.2293491784144 A 160 160 0 0 1 358.8895462828466 558.445548360714 L 282.3343194242699 581.6683225410711 A 240 240 0 0 0 290.26891219729123 603.8440237676217 Z" fill="white" stroke="black" stroke-width="1"/>
<path d="M 129.2238657071165 628.1138709017849 A 400 400 0 0 1 119.6858878387078 590.0361288064513 L 41.22306540644939 605.6433545677415 A 480 480 0 0 0 52.668638848539786 651.336645082142 Z" fill="white" stroke="black" stroke-width="1"/>
<path d="M 205.7790925656932 604.891096721428 A 320 320 0 0 1 198.14871027096626 574.4289030451611 L 119.6858878387078 590.0361288064513 A 400 400 0 0 0 129.2238657071165 628.1138709017849 Z" fill="black" stroke="black" stroke-width="1"/>
<path d="M 282.3343194242699 581.668322541071 A 240 240 0 0 1 276.6115327032247 558.8216772838707 L 198.14871027096626 574.4289030451611 A 320 320 0 0 0 205.7790925656932 604.891096721428 Z" fill="white" stroke="black" stroke-width="1"/>
<path d="M 358.8895462828466 558.4455483607139 A 160 160 0 0 1 355.07435513548313 543.2144515225805 L 276.6115327032247 558.8216772838707 A 240 240 0 0 0 282.3343194242699 581.668322541071 Z" fill="white" stroke="black" stroke-width="1"/>
<path d="M 119.6858878387078 590.0361288064514 A 400 400 0 0 1 113.92610933112127 551.2068561318243 L 34.31133119734551 559.0482273581893 A 480 480 0 0 0 41.22306540644939 605.6433545677418 Z" fill="white" stroke="black" stroke-width="1"/>
<path d="M 198.14871027096626 574.4289030451612 A 320 320 0 0 1 193.54088746489703 543.3654849054594 L 113.92610933112127 551.2068561318243 A 400 400 0 0 0 119.6858878387078 590.0361288064514 Z" fill="white" stroke="black" stroke-width="1"/>
<path d="M 276.6115327032247 558.8216772838708 A 240 240 0 0 1 273.1556655986727 535.5241136790946 L 193.54088746489703 543.3654849054594 A 320 320 0 0 0 198.14871027096626 574.4289030451612 Z" fill="black" stroke="black" stroke-width="1"/>
<path d="M 355.07435513548313 543.2144515225806 A 160 160 0 0 1 352.7704437324485 527.6827424527297 L 273.1556655986727 535.5241136790946 A 240 240 0 0 0 276.6115327032247 558.8216772838708 Z" fill="white" stroke="black" stroke-width="1"/>
<path d="M 113.92610933112121 551.2068561318241 A 400 400 0 0 1 112 511.9999999999999 L 32 511.99999999999983 A 480 480 0 0 0 34.31133119734545 559.048227358189 Z" fill="white" stroke="black" stroke-width="1"/>
<path d="M 193.54088746489697 543.3654849054593 A 320 320 0 0 1 192 511.9999999999999 L 112 511.9999999999999 A 400 400 0 0 0 113.92610933112121 551.2068561318241 Z" fill="black" stroke="black" stroke-width="1"/>
<path d="M 273.1556655986727 535.5241136790945 A 240 240 0 0 1 272 511.99999999999994 L 192 511.9999999999999 A 320 320 0 0 0 193.54088746489697 543.3654849054593 Z" fill="black" stroke="black" stroke-width="1"/>
<path d="M 352.7704437324485 527.6827424527297 A 160 160 0 0 1 352 511.99999999999994 L 272 511.99999999999994 A 240 240 0 0 0 273.1556655986727 535.5241136790945 Z" fill="black" stroke="black" stroke-width="1"/>
<path d="M 112 512 A 400 400 0 0 1 113.92610933112121 472.7931438681758 L 34.31133119734545 464.9517726418109 A 480 480 0 0 0 32 512.0000000000001 Z" fill="white" stroke="black" stroke-width="1"/>
<path d="M 192 512 A 320 320 0 0 1 193.54088746489697 480.63451509454063 L 113.92610933112121 472.7931438681758 A 400 400 0 0 0 112 512 Z" fill="white" stroke="black" stroke-width="1"/>
<path d="M 272 512 A 240 240 0 0 1 273.1556655986727 488.4758863209055 L 193.54088746489697 480.63451509454063 A 320 320 0 0 0 192 512 Z" fill="white" stroke="black" stroke-width="1"/>
<path d="M 352 512 A 160 160 0 0 1 352.7704437324485 496.3172575472703 L 273.1556655986727 488.4758863209055 A 240 240 0 0 0 272 512 Z" fill="black" stroke="black" stroke-width="1"/>
<path d="M 113.92610933112121 472.79314386817595 A 400 400 0 0 1 119.6858878387078 433.9638711935488 L 41.22306540644934 418.3566454322586 A 480 480 0 0 0 34.31133119734545 464.95177264181115 Z" fill="black" stroke="black" stroke-width="1"/>
<path d="M 193.54088746489697 480.63451509454075 A 320 320 0 0 1 198.1487102709662 449.57109695483905 L 119.6858878387078 433.9638711935488 A 400 400 0 0 0 113.92610933112121 472.79314386817595 Z" fill="white" stroke="black" stroke-width="1"/>
<path d="M 273.1556655986727 488.47588632090554 A 240 240 0 0 1 276.61153270322467 465.1783227161293 L 198.1487102709662 449.57109695483905 A 320 320 0 0 0 193.54088746489697 480.63451509454075 Z" fill="white" stroke="black" stroke-width="1"/>
<path d="M 352.7704437324485 496.3172575472704 A 160 160 0 0 1 355.0743551354831 480.7855484774195 L 276.61153270322467 465.1783227161293 A 240 240 0 0 0 273.1556655986727 488.47588632090554 Z" fill="black" stroke="black" stroke-width="1"/>
<path d="M 119.6858878387078 433.96387119354864 A 400 400 0 0 1 129.2238657071165 395.88612909821495 L 52.668638848539786 372.663354917858 A 480 480 0 0 0 41.22306540644939 418.3566454322584 Z" fill="white" stroke="black" stroke-width="1"/>
<path d="M 198.14871027096626 449.57109695483894 A 320 320 0 0 1 205.7790925656932 419.108903278572 L 129.2238657071165 395.88612909821495 A 400 400 0 0 0 119.6858878387078 433.96387119354864 Z" fill="black" stroke="black" stroke-width="1"/>
<path d="M 276.6115327032247 465.1783227161292 A 240 240 0 0 1 282.3343194242699 442.331677458929 L 205.7790925656932 419.108903278572 A 320 320 0 0 0 198.14871027096626 449.57109695483894 Z" fill="white" stroke="black" stroke-width="1"/>
<path d="M 355.07435513548313 480.78554847741947 A 160 160 0 0 1 358.8895462828466 465.554451639286 L 282.3343194242699 442.331677458929 A 240 240 0 0 0 276.6115327032247 465.1783227161292 Z" fill="white" stroke="black" stroke-width="1"/>
<path d="M 129.22386570711643 395.8861290982152 A 400 400 0 0 1 142.4481869954853 358.9266270539641 L 68.53782439458229 328.3119524647569 A 480 480 0 0 0 52.66863884853973 372.6633549178582 Z" fill="black" stroke="black" stroke-width="1"/>
<path d="M 205.77909256569313 419.10890327857214 A 320 320 0 0 1 216.35854959638823 389.5413016431713 L 142.4481869954853 358.9266270539641 A 400 400 0 0 0 129.22386570711643 395.8861290982152 Z" fill="white" stroke="black" stroke-width="1"/>
<path d="M 282.3343194242699 442.3316774589291 A 240 240 0 0 1 290.2689121972911 420.15597623237846 L 216.35854959638823 389.5413016431713 A 320 320 0 0 0 205.77909256569313 419.10890327857214 Z" fill="white" stroke="black" stroke-width="1"/>
<path d="M 358.8895462828466 465.55445163928607 A 160 160 0 0 1 364.1792747981941 450.77065082158566 L 290.2689121972911 420.15597623237846 A 240 240 0 0 0 282.3343194242699 442.3316774589291 Z" fill="white" stroke="black" stroke-width="1"/>
<path d="M 142.44818699548534 358.926627053964 A 400 400 0 0 1 159.23149426065805 323.4413052696008 L 88.67779311278969 285.72956632352094 A 480 480 0 0 0 68.5378243945824 328.31195246475676 Z" fill="black" stroke="black" stroke-width="1"/>
<path d="M 216.3585495963883 389.5413016431712 A 320 320 0 0 1 229.78519540852648 361.15304421568067 L 159.23149426065805 323.4413052696008 A 400 400 0 0 0 142.44818699548534 358.926627053964 Z" fill="white" stroke="black" stroke-width="1"/>
<path d="M 290.26891219729123 420.1559762323784 A 240 240 0 0 1 300.33889655639484 398.86478316176044 L 229.78519540852648 361.15304421568067 A 320 320 0 0 0 216.3585495963883 389.5413016431712 Z" fill="white" stroke="black" stroke-width="1"/>
<path d="M 364.1792747981941 450.7706508215856 A 160 160 0 0 1 370.89259770426327 436.57652210784033 L 300.33889655639484 398.86478316176044 A 240 240 0 0 0 290.26891219729123 420.1559762323784 Z" fill="black" stroke="black" stroke-width="1"/>
<path d="M 159.231494260658 323.44130526960095 A 400 400 0 0 1 179.41215507898193 289.7719067921591 L 112.89458609477828 245.32628815059093 A 480 480 0 0 0 88.67779311278957 285.7295663235211 Z" fill="black" stroke="black" stroke-width="1"/>
<path d="M 229.78519540852636 361.1530442156808 A 320 320 0 0 1 245.92972406318552 334.21752543372725 L 179.41215507898193 289.7719067921591 A 400 400 0 0 0 159.231494260658 323.44130526960095 Z" fill="black" stroke="black" stroke-width="1"/>
<path d="M 300.3388965563948 398.86478316176056 A 240 240 0 0 1 312.44729304738917 378.66314407529546 L 245.92972406318552 334.21752543372725 A 320 320 0 0 0 229.78519540852636 361.1530442156808 Z" fill="white" stroke="black" stroke-width="1"/>
<path d="M 370.89259770426315 436.5765221078404 A 160 160 0 0 1 378.96486203159276 423.1087627168636 L 312.44729304738917 378.66314407529546 A 240 240 0 0 0 300.3388965563948 398.86478316176056 Z" fill="white" stroke="black" stroke-width="1"/>
<path d="M 179.4121550789818 289.77190679215926 A 400 400 0 0 1 202.79581865490513 258.2426863345419 L 140.95498238588618 207.49122360145026 A 480 480 0 0 0 112.89458609477816 245.32628815059104 Z" fill="white" stroke="black" stroke-width="1"/>
<path d="M 245.92972406318546 334.21752543372736 A 320 320 0 0 1 264.63665492392414 308.99414906763354 L 202.79581865490513 258.2426863345419 A 400 400 0 0 0 179.4121550789818 289.77190679215926 Z" fill="black" stroke="black" stroke-width="1"/>
<path d="M 312.44729304738905 378.6631440752955 A 240 240 0 0 1 326.4774911929431 359.7456118007251 L 264.63665492392414 308.99414906763354 A 320 320 0 0 0 245.92972406318546 334.21752543372736 Z" fill="white" stroke="black" stroke-width="1"/>
<path d="M 378.9648620315927 423.1087627168637 A 160 160 0 0 1 388.3183274619621 410.4970745338168 L 326.4774911929431 359.7456118007251 A 240 240 0 0 0 312.44729304738905 378.6631440752955 Z" fill="white" stroke="black" stroke-width="1"/>
<path d="M 202.79581865490525 258.24268633454176 A 400 400 0 0 1 229.15728752538104 229.15728752538092 L 172.5887450304573 172.58874503045712 A 480 480 0 0 0 140.9549823858863 207.4912236014501 Z" fill="black" stroke="black" stroke-width="1"/>
<path d="M 264.6366549239242 308.99414906763343 A 320 320 0 0 1 285.72583002030484 285.7258300203047 L 229.15728752538104 229.15728752538092 A 400 400 0 0 0 202.79581865490525 258.24268633454176 Z" fill="white" stroke="black" stroke-width="1"/>
<path d="M 326.47749119294315 359.74561180072504 A 240 240 0 0 1 342.29437251522864 342.2943725152286 L 285.72583002030484 285.7258300203047 A 320 320 0 0 0 264.6366549239242 308.99414906763343 Z" fill="black" stroke="black" stroke-width="1"/>
<path d="M 388.3183274619621 410.4970745338167 A 160 160 0 0 1 398.8629150101524 398.8629150101524 L 342.29437251522864 342.2943725152286 A 240 240 0 0 0 326.47749119294315 359.74561180072504 Z" fill="black" stroke="black" stroke-width="1"/>
<path d="M 229.15728752538092 229.15728752538104 A 400 400 0 0 1 258.24268633454165 202.79581865490536 L 207.49122360144997 140.9549823858864 A 480 480 0 0 0 172.58874503045712 172.58874503045723 Z" fill="white" stroke="black" stroke-width="1"/>
<path d="M 285.7258300203047 285.7258300203048 A 320 320 0 0 1 308.9941490676333 264.63665492392425 L 258.24268633454165 202.79581865490536 A 400 400 0 0 0 229.15728752538092 229.15728752538104 Z" fill="black" stroke="black" stroke-width="1"/>
<path d="M 342.2943725152286 342.2943725152286 A 240 240 0 0 1 359.745611800725 326.4774911929432 L 308.9941490676333 264.63665492392425 A 320 320 0 0 0 285.7258300203047 285.7258300203048 Z" fill="white" stroke="black" stroke-width="1"/>
<path d="M 398.8629150101524 398.8629150101524 A 160 160 0 0 1 410.49707453381666 388.3183274619621 L 359.745611800725 326.4774911929432 A 240 240 0 0 0 342.2943725152286 342.2943725152286 Z" fill="black" stroke="black" stroke-width="1"/>
<path d="M 258.24268633454165 202.79581865490536 A 400 400 0 0 1 289.7719067921588 179.4121550789821 L 245.32628815059059 112.8945860947785 A 480 480 0 0 0 207.49122360144997 140.9549823858864 Z" fill="white" stroke="black" stroke-width="1"/>
<path d="M 308.9941490676333 264.63665492392425 A 320 320 0 0 1 334.217525433727 245.9297240631857 L 289.7719067921588 179.4121550789821 A 400 400 0 0 0 258.24268633454165 202.79581865490536 Z" fill="black" stroke="black" stroke-width="1"/>
<path d="M 359.745611800725 326.4774911929432 A 240 240 0 0 1 378.6631440752953 312.4472930473893 L 334.217525433727 245.9297240631857 A 320 320 0 0 0 308.9941490676333 264.63665492392425 Z" fill="white" stroke="black" stroke-width="1"/>
<path d="M 410.49707453381666 388.3183274619621 A 160 160 0 0 1 423.1087627168635 378.9648620315928 L 378.6631440752953 312.4472930473893 A 240 240 0 0 0 359.745611800725 326.4774911929432 Z" fill="white" stroke="black" stroke-width="1"/>
<path d="M 289.77190679215914 179.41215507898193 A 400 400 0 0 1 323.44130526960083 159.231494260658 L 285.729566323521 88.67779311278963 A 480 480 0 0 0 245.32628815059093 112.89458609477828 Z" fill="white" stroke="black" stroke-width="1"/>
<path d="M 334.2175254337273 245.92972406318552 A 320 320 0 0 1 361.15304421568067 229.78519540852642 L 323.44130526960083 159.231494260658 A 400 400 0 0 0 289.77190679215914 179.41215507898193 Z" fill="black" stroke="black" stroke-width="1"/>
<path d="M 378.66314407529546 312.44729304738917 A 240 240 0 0 1 398.8647831617605 300.33889655639484 L 361.15304421568067 229.78519540852642 A 320 320 0 0 0 334.2175254337273 245.92972406318552 Z" fill="white" stroke="black" stroke-width="1"/>
<path d="M 423.1087627168637 378.96486203159276 A 160 160 0 0 1 436.57652210784033 370.8925977042632 L 398.8647831617605 300.33889655639484 A 240 240 0 0 0 378.66314407529546 312.44729304738917 Z" fill="white" stroke="black" stroke-width="1"/>
<path d="M 323.44130526960083 159.231494260658 A 400 400 0 0 1 358.9266270539639 142.4481869954854 L 328.31195246475664 68.53782439458246 A 480 480 0 0 0 285.729566323521 88.67779311278963 Z" fill="white" stroke="black" stroke-width="1"/>
<path d="M 361.15304421568067 229.78519540852642 A 320 320 0 0 1 389.5413016431711 216.35854959638834 L 358.9266270539639 142.4481869954854 A 400 400 0 0 0 323.44130526960083 159.231494260658 Z" fill="black" stroke="black" stroke-width="1"/>
<path d="M 398.8647831617605 300.33889655639484 A 240 240 0 0 1 420.1559762323783 290.26891219729123 L 389.5413016431711 216.35854959638834 A 320 320 0 0 0 361.15304421568067 229.78519540852642 Z" fill="black" stroke="black" stroke-width="1"/>
<path d="M 436.57652210784033 370.8925977042632 A 160 160 0 0 1 450.77065082158555 364.1792747981942 L 420.1559762323783 290.26891219729123 A 240 240 0 0 0 398.8647831617605 300.33889655639484 Z" fill="black" stroke="black" stroke-width="1"/>
<path d="M 358.9266270539639 142.4481869954854 A 400 400 0 0 1 395.8861290982147 129.22386570711654 L 372.66335491785765 52.6686388485399 A 480 480 0 0 0 328.31195246475664 68.53782439458246 Z" fill="white" stroke="black" stroke-width="1"/>
<path d="M 389.5413016431711 216.35854959638834 A 320 320 0 0 1 419.10890327857174 205.77909256569325 L 395.8861290982147 129.22386570711654 A 400 400 0 0 0 358.9266270539639 142.4481869954854 Z" fill="white" stroke="black" stroke-width="1"/>
<path d="M 420.1559762323783 290.26891219729123 A 240 240 0 0 1 442.3316774589288 282.33431942426995 L 419.10890327857174 205.77909256569325 A 320 320 0 0 0 389.5413016431711 216.35854959638834 Z" fill="white" stroke="black" stroke-width="1"/>
<path d="M 450.77065082158555 364.1792747981942 A 160 160 0 0 1 465.55445163928584 358.8895462828466 L 442.3316774589288 282.33431942426995 A 240 240 0 0 0 420.1559762323783 290.26891219729123 Z" fill="white" stroke="black" stroke-width="1"/>
<path d="M 395.886129098215 129.2238657071165 A 400 400 0 0 1 433.9638711935485 119.68588783870786 L 418.35664543225823 41.22306540644945 A 480 480 0 0 0 372.663354917858 52.668638848539786 Z" fill="black" stroke="black" stroke-width="1"/>
<path d="M 419.10890327857203 205.7790925656932 A 320 320 0 0 1 449.5710969548388 198.14871027096632 L 433.9638711935485 119.68588783870786 A 400 400 0 0 0 395.886129098215 129.2238657071165 Z" fill="black" stroke="black" stroke-width="1"/>
<path d="M 442.331677458929 282.3343194242699 A 240 240 0 0 1 465.1783227161291 276.6115327032247 L 449.5710969548388 198.14871027096632 A 320 320 0 0 0 419.10890327857203 205.7790925656932 Z" fill="white" stroke="black" stroke-width="1"/>
<path d="M 465.554451639286 358.8895462828466 A 160 160 0 0 1 480.7855484774194 355.0743551354832 L 465.1783227161291 276.6115327032247 A 240 240 0 0 0 442.331677458929 282.3343194242699 Z" fill="black" stroke="black" stroke-width="1"/>
<path d="M 433.9638711935485 119.68588783870786 A 400 400 0 0 1 472.79314386817543 113.92610933112127 L 464.9517726418106 34.31133119734551 A 480 480 0 0 0 418.35664543225823 41.22306540644945 Z" fill="black" stroke="black" stroke-width="1"/>
<path d="M 449.5710969548388 198.14871027096632 A 320 320 0 0 1 480.63451509454035 193.54088746489703 L 472.79314386817543 113.92610933112127 A 400 400 0 0 0 433.9638711935485 119.68588783870786 Z" fill="black" stroke="black" stroke-width="1"/>
<path d="M 465.1783227161291 276.6115327032247 A 240 240 0 0 1 488.47588632090526 273.1556655986727 L 480.63451509454035 193.54088746489703 A 320 320 0 0 0 449.5710969548388 198.14871027096632 Z" fill="white" stroke="black" stroke-width="1"/>
<path d="M 480.7855484774194 355.0743551354832 A 160 160 0 0 1 496.3172575472702 352.7704437324485 L 488.47588632090526 273.1556655986727 A 240 240 0 0 0 465.1783227161291 276.6115327032247 Z" fill="black" stroke="black" stroke-width="1"/>
<path d="M 472.79314386817583 113.92610933112121 A 400 400 0 0 1 511.99999999999994 112 L 511.9999999999999 32 A 480 480 0 0 0 464.951772641811 34.31133119734545 Z" fill="white" stroke="black" stroke-width="1"/>
<path d="M 480.63451509454063 193.54088746489697 A 320 320 0 0 1 511.99999999999994 192 L 511.99999999999994 112 A 400 400 0 0 0 472.79314386817583 113.92610933112121 Z" fill="white" stroke="black" stroke-width="1"/>
<path d="M 488.4758863209055 273.1556655986727 A 240 240 0 0 1 511.99999999999994 272 L 511.99999999999994 192 A 320 320 0 0 0 480.63451509454063 193.54088746489697 Z" fill="black" stroke="black" stroke-width="1"/>
<path d="M 496.31725754727034 352.7704437324485 A 160 160 0 0 1 511.99999999999994 352 L 511.99999999999994 272 A 240 240 0 0 0 488.4758863209055 273.1556655986727 Z" fill="black" stroke="black" stroke-width="1"/>
<text x="512" y="465" font-size="22" fill="white" text-anchor="middle" font-family="monospace">ff6db4537ff90bf6</text>
<text x="512" y="501" font-size="22" fill="white" text-anchor="middle" font-family="monospace">96add8f10c6a52f5</text>
<text x="512" y="537" font-size="22" fill="white" text-anchor="middle" font-family="monospace">0cbaa95c0ff1adb1</text>
<text x="512" y="573" font-size="22" fill="white" text-anchor="middle" font-family="monospace">76de6cd25dd1f443</text>
<text x="1014" y="1014" font-size="18" fill="white" text-anchor="end" font-family="monospace" opacity="0.5">github.com/DataSattva/HashJing</text>
      </svg>